<?xml version="1.0" encoding="UTF-8" standalone="no"?>
<svg width="35px" height="34px" viewBox="0 0 35 34" version="1.1" xmlns="http://www.w3.org/2000/svg" xmlns:xlink="http://www.w3.org/1999/xlink">
    <!-- Generator: Sketch 3.7.1 (28215) - http://www.bohemiancoding.com/sketch -->
    <title>social-icons</title>
    <desc>Created with Sketch.</desc>
    <defs></defs>
    <g id="Page-1" stroke="none" stroke-width="1" fill="none" fill-rule="evenodd">
        <g id="example-mockup" transform="translate(-952.000000, -311.000000)" fill="#5995DA">
            <g id="social-icons" transform="translate(951.000000, 310.000000)">
                <g id="Group-4" transform="translate(0.645253, 0.502656)">
                    <path d="M17.095515,0.485828614 C8.02038838,0.485828614 0.662818889,7.8433981 0.662818889,16.9185247 C0.662818889,25.9954766 8.02038838,33.3512209 17.095515,33.3512209 C26.1706417,33.3512209 33.5282112,25.9954766 33.5282112,16.9185247 C33.5282112,7.8433981 26.1706417,0.485828614 17.095515,0.485828614 L17.095515,0.485828614 Z M23.6298982,13.5682844 C23.6371992,13.7124789 23.6399371,13.857586 23.6399371,14.0036058 C23.6399371,18.459033 20.2486287,23.5961898 14.047353,23.5961898 C12.1427081,23.5961898 10.3713061,23.038577 8.87916696,22.0821477 C9.14382773,22.1122643 9.412139,22.1286915 9.68318813,22.1286915 C11.2638518,22.1286915 12.7158355,21.5911563 13.8693915,20.6867466 C12.3945921,20.6584553 11.1488612,19.6837735 10.7208409,18.3458677 C10.9261811,18.3841979 11.1369971,18.4061008 11.3542015,18.4061008 C11.6617556,18.4061008 11.9601834,18.3641201 12.242184,18.2874598 C10.7016758,17.9762552 9.53808102,16.6146212 9.53808102,14.981938 L9.53808102,14.9399573 C9.99348007,15.192754 10.5127628,15.3433368 11.0658125,15.3615893 C10.1614028,14.7574326 9.56637234,13.724343 9.56637234,12.5552725 C9.56637234,11.9374265 9.73246979,11.3579106 10.022684,10.8605309 C11.6845712,12.9002441 14.1696445,14.2427131 16.9713982,14.3832571 C16.913903,14.1368488 16.8837864,13.879489 16.8837864,13.6148282 C16.8837864,11.7530766 18.3932654,10.2445102 20.2559297,10.2445102 C21.2251357,10.2445102 22.1012541,10.6533654 22.7163623,11.3077164 C23.4838785,11.1571335 24.2057636,10.8760455 24.8573767,10.4890932 C24.60458,11.2775998 24.0706953,11.9374265 23.3752763,12.3544953 C24.057006,12.2741845 24.7077064,12.0916598 25.3109505,11.8251738 C24.8610272,12.4996025 24.2888123,13.0928076 23.6298982,13.5682844 L23.6298982,13.5682844 Z" id="Shape"></path>
                </g>
            </g>
        </g>
    </g>
</svg>
